<?xml version="1.0" encoding="UTF-8"?>
<svg xmlns="http://www.w3.org/2000/svg" width="90.000000mm" height="90.000000mm" viewBox="0 0 90.000000 90.000000">
<g transform="translate(45.000000,45.000000) scale(1,-1)">
<circle cx="0" cy="0" r="40.000000" stroke="black" stroke-width="0.250000" fill="none" />
<circle cx="0" cy="0" r="20.000000" stroke="black" stroke-width="0.250000" fill="none" />
<circle cx="0" cy="0" r="20.000000" stroke="#666666" stroke-width="0.250000" fill="none" />
<circle cx="0" cy="0" r="37.500000" stroke="#666666" stroke-width="0.250000" fill="none" />
<path d="M 0.000000,-21.847886 L 2.592148,-23.526990 L 2.991104,-27.148022 L 0.000000,-29.133773 L -2.991104,-27.148022 L -2.592148,-23.526990 Z" stroke="black" stroke-width="0.250000" fill="none" />
<path d="M 5.654649,-21.103437 L 8.593055,-22.054430 L 9.915610,-25.448821 L 7.540375,-28.141064 L 4.137240,-26.997130 L 3.585411,-23.396224 Z" stroke="black" stroke-width="0.250000" fill="none" />
<path d="M 10.923943,-18.920824 L 14.008361,-19.078897 L 16.164383,-22.015324 L 14.566886,-25.230588 L 10.983638,-25.006429 L 9.518629,-21.671045 Z" stroke="black" stroke-width="0.250000" fill="none" />
<path d="M 15.448788,-15.448788 L 18.469019,-14.803169 L 21.311581,-17.081520 L 20.600688,-20.600688 L 17.081520,-21.311581 L 14.803169,-18.469019 Z" stroke="black" stroke-width="0.250000" fill="none" />
<path d="M 18.920824,-10.923943 L 21.671045,-9.518629 L 25.006429,-10.983638 L 25.230588,-14.566886 L 22.015324,-16.164383 L 19.078897,-14.008361 Z" stroke="black" stroke-width="0.250000" fill="none" />
<path d="M 21.103437,-5.654649 L 23.396224,-3.585411 L 26.997130,-4.137240 L 28.141064,-7.540375 L 25.448821,-9.915610 L 22.054430,-8.593055 Z" stroke="black" stroke-width="0.250000" fill="none" />
<path d="M 21.847886,0.000000 L 23.526990,2.592148 L 27.148022,2.991104 L 29.133773,0.000000 L 27.148022,-2.991104 L 23.526990,-2.592148 Z" stroke="black" stroke-width="0.250000" fill="none" />
<path d="M 21.103437,5.654649 L 22.054430,8.593055 L 25.448821,9.915610 L 28.141064,7.540375 L 26.997130,4.137240 L 23.396224,3.585411 Z" stroke="black" stroke-width="0.250000" fill="none" />
<path d="M 18.920824,10.923943 L 19.078897,14.008361 L 22.015324,16.164383 L 25.230588,14.566886 L 25.006429,10.983638 L 21.671045,9.518629 Z" stroke="black" stroke-width="0.250000" fill="none" />
<path d="M 15.448788,15.448788 L 14.803169,18.469019 L 17.081520,21.311581 L 20.600688,20.600688 L 21.311581,17.081520 L 18.469019,14.803169 Z" stroke="black" stroke-width="0.250000" fill="none" />
<path d="M 10.923943,18.920824 L 9.518629,21.671045 L 10.983638,25.006429 L 14.566886,25.230588 L 16.164383,22.015324 L 14.008361,19.078897 Z" stroke="black" stroke-width="0.250000" fill="none" />
<path d="M 5.654649,21.103437 L 3.585411,23.396224 L 4.137240,26.997130 L 7.540375,28.141064 L 9.915610,25.448821 L 8.593055,22.054430 Z" stroke="black" stroke-width="0.250000" fill="none" />
<path d="M 0.000000,21.847886 L -2.592148,23.526990 L -2.991104,27.148022 L 0.000000,29.133773 L 2.991104,27.148022 L 2.592148,23.526990 Z" stroke="black" stroke-width="0.250000" fill="none" />
<path d="M -5.654649,21.103437 L -8.593055,22.054430 L -9.915610,25.448821 L -7.540375,28.141064 L -4.137240,26.997130 L -3.585411,23.396224 Z" stroke="black" stroke-width="0.250000" fill="none" />
<path d="M -10.923943,18.920824 L -14.008361,19.078897 L -16.164383,22.015324 L -14.566886,25.230588 L -10.983638,25.006429 L -9.518629,21.671045 Z" stroke="black" stroke-width="0.250000" fill="none" />
<path d="M -15.448788,15.448788 L -18.469019,14.803169 L -21.311581,17.081520 L -20.600688,20.600688 L -17.081520,21.311581 L -14.803169,18.469019 Z" stroke="black" stroke-width="0.250000" fill="none" />
<path d="M -18.920824,10.923943 L -21.671045,9.518629 L -25.006429,10.983638 L -25.230588,14.566886 L -22.015324,16.164383 L -19.078897,14.008361 Z" stroke="black" stroke-width="0.250000" fill="none" />
<path d="M -21.103437,5.654649 L -23.396224,3.585411 L -26.997130,4.137240 L -28.141064,7.540375 L -25.448821,9.915610 L -22.054430,8.593055 Z" stroke="black" stroke-width="0.250000" fill="none" />
<path d="M -21.847886,0.000000 L -23.526990,-2.592148 L -27.148022,-2.991104 L -29.133773,0.000000 L -27.148022,2.991104 L -23.526990,2.592148 Z" stroke="black" stroke-width="0.250000" fill="none" />
<path d="M -21.103437,-5.654649 L -22.054430,-8.593055 L -25.448821,-9.915610 L -28.141064,-7.540375 L -26.997130,-4.137240 L -23.396224,-3.585411 Z" stroke="black" stroke-width="0.250000" fill="none" />
<path d="M -18.920824,-10.923943 L -19.078897,-14.008361 L -22.015324,-16.164383 L -25.230588,-14.566886 L -25.006429,-10.983638 L -21.671045,-9.518629 Z" stroke="black" stroke-width="0.250000" fill="none" />
<path d="M -15.448788,-15.448788 L -14.803169,-18.469019 L -17.081520,-21.311581 L -20.600688,-20.600688 L -21.311581,-17.081520 L -18.469019,-14.803169 Z" stroke="black" stroke-width="0.250000" fill="none" />
<path d="M -10.923943,-18.920824 L -9.518629,-21.671045 L -10.983638,-25.006429 L -14.566886,-25.230588 L -16.164383,-22.015324 L -14.008361,-19.078897 Z" stroke="black" stroke-width="0.250000" fill="none" />
<path d="M -5.654649,-21.103437 L -3.585411,-23.396224 L -4.137240,-26.997130 L -7.540375,-28.141064 L -9.915610,-25.448821 L -8.593055,-22.054430 Z" stroke="black" stroke-width="0.250000" fill="none" />
<path d="M 3.673164,-27.900451 L 7.365311,-29.159373 L 8.312563,-32.909559 L 4.682906,-35.570205 L 0.488301,-33.939642 L 0.432657,-30.072074 Z" stroke="black" stroke-width="0.250000" fill="none" />
<path d="M 10.769172,-25.999081 L 14.661345,-26.259509 L 16.546940,-29.636743 L 13.729587,-33.146154 L 9.255888,-32.656796 L 8.201140,-28.935413 Z" stroke="black" stroke-width="0.250000" fill="none" />
<path d="M 17.131279,-22.325917 L 20.958233,-21.570102 L 23.653670,-24.344232 L 21.840618,-28.463248 L 17.392702,-29.148442 L 15.410729,-25.826852 Z" stroke="black" stroke-width="0.250000" fill="none" />
<path d="M 22.325917,-17.131279 L 25.826852,-15.410729 L 29.148442,-17.392702 L 28.463248,-21.840618 L 24.344232,-23.653670 L 21.570102,-20.958233 Z" stroke="black" stroke-width="0.250000" fill="none" />
<path d="M 25.999081,-10.769172 L 28.935413,-8.201140 L 32.656796,-9.255888 L 33.146154,-13.729587 L 29.636743,-16.546940 L 26.259509,-14.661345 Z" stroke="black" stroke-width="0.250000" fill="none" />
<path d="M 27.900451,-3.673164 L 30.072074,-0.432657 L 33.939642,-0.488301 L 35.570205,-4.682906 L 32.909559,-8.312563 L 29.159373,-7.365311 Z" stroke="black" stroke-width="0.250000" fill="none" />
<path d="M 27.900451,3.673164 L 29.159373,7.365311 L 32.909559,8.312563 L 35.570205,4.682906 L 33.939642,0.488301 L 30.072074,0.432657 Z" stroke="black" stroke-width="0.250000" fill="none" />
<path d="M 25.999081,10.769172 L 26.259509,14.661345 L 29.636743,16.546940 L 33.146154,13.729587 L 32.656796,9.255888 L 28.935413,8.201140 Z" stroke="black" stroke-width="0.250000" fill="none" />
<path d="M 22.325917,17.131279 L 21.570102,20.958233 L 24.344232,23.653670 L 28.463248,21.840618 L 29.148442,17.392702 L 25.826852,15.410729 Z" stroke="black" stroke-width="0.250000" fill="none" />
<path d="M 17.131279,22.325917 L 15.410729,25.826852 L 17.392702,29.148442 L 21.840618,28.463248 L 23.653670,24.344232 L 20.958233,21.570102 Z" stroke="black" stroke-width="0.250000" fill="none" />
<path d="M 10.769172,25.999081 L 8.201140,28.935413 L 9.255888,32.656796 L 13.729587,33.146154 L 16.546940,29.636743 L 14.661345,26.259509 Z" stroke="black" stroke-width="0.250000" fill="none" />
<path d="M 3.673164,27.900451 L 0.432657,30.072074 L 0.488301,33.939642 L 4.682906,35.570205 L 8.312563,32.909559 L 7.365311,29.159373 Z" stroke="black" stroke-width="0.250000" fill="none" />
<path d="M -3.673164,27.900451 L -7.365311,29.159373 L -8.312563,32.909559 L -4.682906,35.570205 L -0.488301,33.939642 L -0.432657,30.072074 Z" stroke="black" stroke-width="0.250000" fill="none" />
<path d="M -10.769172,25.999081 L -14.661345,26.259509 L -16.546940,29.636743 L -13.729587,33.146154 L -9.255888,32.656796 L -8.201140,28.935413 Z" stroke="black" stroke-width="0.250000" fill="none" />
<path d="M -17.131279,22.325917 L -20.958233,21.570102 L -23.653670,24.344232 L -21.840618,28.463248 L -17.392702,29.148442 L -15.410729,25.826852 Z" stroke="black" stroke-width="0.250000" fill="none" />
<path d="M -22.325917,17.131279 L -25.826852,15.410729 L -29.148442,17.392702 L -28.463248,21.840618 L -24.344232,23.653670 L -21.570102,20.958233 Z" stroke="black" stroke-width="0.250000" fill="none" />
<path d="M -25.999081,10.769172 L -28.935413,8.201140 L -32.656796,9.255888 L -33.146154,13.729587 L -29.636743,16.546940 L -26.259509,14.661345 Z" stroke="black" stroke-width="0.250000" fill="none" />
<path d="M -27.900451,3.673164 L -30.072074,0.432657 L -33.939642,0.488301 L -35.570205,4.682906 L -32.909559,8.312563 L -29.159373,7.365311 Z" stroke="black" stroke-width="0.250000" fill="none" />
<path d="M -27.900451,-3.673164 L -29.159373,-7.365311 L -32.909559,-8.312563 L -35.570205,-4.682906 L -33.939642,-0.488301 L -30.072074,-0.432657 Z" stroke="black" stroke-width="0.250000" fill="none" />
<path d="M -25.999081,-10.769172 L -26.259509,-14.661345 L -29.636743,-16.546940 L -33.146154,-13.729587 L -32.656796,-9.255888 L -28.935413,-8.201140 Z" stroke="black" stroke-width="0.250000" fill="none" />
<path d="M -22.325917,-17.131279 L -21.570102,-20.958233 L -24.344232,-23.653670 L -28.463248,-21.840618 L -29.148442,-17.392702 L -25.826852,-15.410729 Z" stroke="black" stroke-width="0.250000" fill="none" />
<path d="M -17.131279,-22.325917 L -15.410729,-25.826852 L -17.392702,-29.148442 L -21.840618,-28.463248 L -23.653670,-24.344232 L -20.958233,-21.570102 Z" stroke="black" stroke-width="0.250000" fill="none" />
<path d="M -10.769172,-25.999081 L -8.201140,-28.935413 L -9.255888,-32.656796 L -13.729587,-33.146154 L -16.546940,-29.636743 L -14.661345,-26.259509 Z" stroke="black" stroke-width="0.250000" fill="none" />
<path d="M -3.673164,-27.900451 L -0.432657,-30.072074 L -0.488301,-33.939642 L -4.682906,-35.570205 L -8.312563,-32.909559 L -7.365311,-29.159373 Z" stroke="black" stroke-width="0.250000" fill="none" />
</g>
</svg>